<?xml version="1.0" standalone="no"?>
<!DOCTYPE svg PUBLIC "-//W3C//DTD SVG 20010904//EN"
 "http://www.w3.org/TR/2001/REC-SVG-20010904/DTD/svg10.dtd">
<svg version="1.0" xmlns="http://www.w3.org/2000/svg"
 width="400.000000pt" height="400.000000pt" viewBox="0 0 400.000000 400.000000"
 preserveAspectRatio="xMidYMid meet">
<metadata>
Created by potrace 1.11, written by Peter Selinger 2001-2013
</metadata>
<g transform="translate(0.000000,400.000000) scale(0.100000,-0.100000)"
fill="#000000" stroke="none">
<path d="M1900 3791 c-53 -11 -108 -39 -430 -226 -162 -94 -302 -174 -310
-178 -8 -4 -24 -13 -35 -20 -11 -7 -42 -25 -70 -41 -27 -16 -86 -51 -130 -77
-44 -26 -96 -55 -115 -66 -224 -120 -334 -206 -377 -294 -54 -110 -54 -106
-51 -921 l3 -753 38 -77 c49 -102 117 -168 243 -239 54 -31 198 -114 319 -184
121 -70 236 -136 255 -147 19 -11 152 -88 295 -171 143 -83 288 -161 322 -173
89 -30 190 -30 288 0 35 11 83 35 185 95 108 63 156 91 240 139 44 24 333 192
380 221 19 11 51 29 70 39 49 26 96 53 175 101 37 23 69 41 71 41 8 0 181 107
202 125 38 32 107 135 128 190 18 47 19 92 22 806 2 668 0 761 -14 810 -23 80
-63 147 -120 203 -45 45 -94 77 -328 210 -28 15 -88 50 -134 77 -45 27 -84 49
-87 49 -2 0 -40 23 -85 50 -45 28 -83 50 -84 50 -2 0 -97 55 -212 121 -327
190 -376 216 -429 232 -54 15 -169 20 -225 8z m160 -387 c25 -14 63 -36 85
-49 22 -12 123 -71 225 -130 102 -59 205 -119 230 -133 25 -14 109 -63 187
-109 79 -45 145 -83 147 -83 3 0 35 -18 73 -41 75 -45 72 -43 161 -94 36 -21
67 -47 72 -60 5 -12 8 -336 7 -719 l-2 -697 -25 -19 c-23 -18 -239 -145 -305
-179 -16 -9 -31 -19 -33 -23 -2 -5 -8 -8 -13 -8 -5 0 -42 -19 -82 -43 -59 -36
-199 -117 -454 -264 -210 -120 -303 -172 -322 -178 -17 -5 -44 5 -109 43 -48
28 -103 59 -122 70 -19 10 -60 34 -90 52 -59 35 -99 58 -170 98 -42 24 -280
162 -380 221 -25 14 -61 35 -81 46 -196 108 -287 167 -297 193 -17 42 -14
1380 3 1411 6 13 57 49 111 81 149 86 538 310 724 418 349 201 385 222 400
222 8 0 35 -12 60 -26z"/>
<path d="M1401 2668 c-113 -65 -146 -89 -151 -108 -3 -14 -6 -274 -5 -579 l0
-554 24 -16 c13 -9 80 -49 150 -89 131 -76 162 -83 186 -44 6 10 12 152 15
339 l5 321 85 -34 c47 -19 94 -39 105 -44 11 -5 76 -32 145 -60 69 -28 139
-57 155 -65 17 -7 66 -28 110 -46 149 -61 155 -70 155 -261 1 -143 6 -162 52
-173 20 -5 47 6 124 52 55 32 110 64 124 71 66 34 74 46 75 113 3 175 -50 308
-164 416 -58 55 -114 84 -366 188 -115 48 -223 93 -240 100 -16 7 -95 40 -175
74 -102 44 -151 70 -165 89 -17 24 -21 47 -25 187 -3 88 -9 168 -15 177 -24
40 -54 32 -204 -54z"/>
</g>
</svg>
